<?xml version="1.0" encoding="utf-8"?>
<!-- Generator: Adobe Illustrator 24.2.3, SVG Export Plug-In . SVG Version: 6.00 Build 0)  -->
<svg version="1.1" id="XboxSeriesX" xmlns="http://www.w3.org/2000/svg" xmlns:xlink="http://www.w3.org/1999/xlink" x="0px"
	 y="0px" viewBox="0 0 971.1 456.1" style="enable-background:new 0 0 971.1 456.1;" xml:space="preserve">
<style type="text/css">
	.st0{fill:#FFFFFF;}
</style>
<g>
	<path class="st0" d="M50.7,22.8c6.4,0,11.4,2.4,15,7.1c3.5,4.7,5.3,11.3,5.3,19.6c0,8.9-2,15.9-6,20.8c-4,4.9-9.8,7.4-17.2,7.5
		l-0.1,0V65.2l0.1,0c4.6-0.1,8-1.5,10-4.2c2-2.7,3-6.7,3-12c0-4.3-0.8-7.6-2.4-9.8c-1.6-2.2-4-3.4-7-3.4c-2.5,0-4.5,1-5.8,2.9
		c-1.3,1.9-2.5,5.5-3.6,10.5l-1.1,5.5c-1.3,7-3.7,12.4-7,15.9c-3.3,3.5-7.7,5.3-13,5.3c-5.7,0-10.2-2.2-13.6-6.5
		c-3.4-4.3-5-10.3-5-18c0-8.7,1.9-15.3,5.6-19.8c3.7-4.5,8.9-6.8,15.6-7.1l0.1,0V37l-0.1,0c-3.7,0.2-6.5,1.5-8.2,3.7
		c-1.8,2.2-2.7,5.8-2.7,10.7c0,3.8,0.7,6.7,2.1,8.7c1.4,2,3.4,3,5.9,3c2.6,0,4.6-0.9,6-2.8c1.4-1.9,2.6-5.2,3.6-10l1.1-5.7
		C32.7,37,35,31.4,38.1,28C41.1,24.5,45.4,22.8,50.7,22.8z M38.1,381.9c-3,3.4-5.4,9-6.9,16.7l-1.1,5.7c-1,4.8-2.2,8.1-3.6,10
		c-1.4,1.8-3.4,2.8-6,2.8c-2.5,0-4.5-1-5.9-3c-1.4-2-2.1-4.9-2.1-8.7c0-4.9,0.9-8.5,2.7-10.7c1.8-2.2,4.5-3.5,8.2-3.7l0.1,0v-12.3
		l-0.1,0c-6.6,0.2-11.9,2.6-15.6,7.1c-3.7,4.5-5.6,11.1-5.6,19.8c0,7.6,1.7,13.7,5,18c3.4,4.3,7.9,6.5,13.6,6.5
		c5.3,0,9.7-1.8,13-5.3c3.3-3.5,5.7-8.9,7-15.9l1.1-5.5c1-5.1,2.2-8.6,3.6-10.5c1.3-1.9,3.3-2.9,5.8-2.9c3,0,5.4,1.1,7,3.4
		c1.6,2.2,2.4,5.5,2.4,9.8c0,5.2-1,9.3-3,12c-2,2.7-5.4,4.1-10,4.2l-0.1,0v12.5l0.1,0c7.4-0.1,13.2-2.6,17.2-7.5
		c4-4.9,6-11.9,6-20.8c0-8.3-1.8-14.9-5.3-19.6c-3.5-4.7-8.6-7.1-15-7.1C45.4,376.8,41.1,378.5,38.1,381.9z M69.6,221.4v13.1l0,0
		c-1.9,1.1-4.5,1.7-7.9,1.8l-7.2,0.3c-4,0.2-6.7,1.1-8.3,2.7c-1.5,1.6-2.3,4.2-2.3,7.7v16.1h25.7v12.6H3.7v-29.9
		c0-1.5,0.1-2.9,0.2-4.3c0,0.4,0,0.9,0,1.4c0.3-5.1,1.6-9.3,3.8-12.6c-0.2,0.2-0.4,0.5-0.5,0.7c0.5-0.8,1-1.6,1.6-2.3
		c3.3-4.1,7.9-6.1,13.6-6.1c7.8,0,13.1,3.6,15.7,10.8c1.1-3.2,2.7-5.5,4.9-6.9c2.2-1.4,5.3-2.2,9.1-2.4l9.8-0.6
		c3.1-0.1,5.7-0.7,7.6-2L69.6,221.4z M23.7,235.6c-3.1,0-5.5,1-7.1,3c-1.6,2-2.5,4.8-2.5,8.5v16h19.7v-16.5c0-3.5-0.9-6.2-2.6-8.1
		C29.5,236.6,27,235.6,23.7,235.6z M3.7,194.9h65.9v-12.6H3.7V194.9z M15,103H3.7v48.6h65.9V103H58.2v36H41.5v-32.6H30.6V139H15V103
		z M15,302.8H3.7v48.6h65.9v-48.6H58.2v36H41.5v-32.6H30.6v32.6H15V302.8z M98.2,431.7h87.4l66.4-91.4l-43.7-60.2L98.2,431.7z
		 M481.3,24.7h-87.4l-54.3,74.8l43.7,60.2L481.3,24.7z M197.7,24.7h-87.4l295.7,407h87.4L197.7,24.7z"/>
	<rect x="551.9" y="24.7" class="st0" width="18" height="407"/>
	<g>
		<path class="st0" d="M672.8,211.2c15.3,13.7,31.5,21.8,58,29.8l41.8-57.5c-23.7-6.1-30.3-10.2-40.1-18.2
			c-11.8-8.9-15-18.3-15-35.8c0-17.2,5.8-27.9,19-37.2c13.3-9.3,26.8-12.4,52.1-12.4c69,0,90.6,30.9,107.5,55.2l39.3-54.9
			c-5.7-8.9-18.6-23.4-27-30.5c-25.6-21.8-69.6-32.4-120.4-32.4c-42.1,0-83.1,10-107.8,29.1c-24.8,19.1-42.4,52.2-42.4,84.2
			C637.9,162.6,652.4,193,672.8,211.2z"/>
		<path class="st0" d="M932.4,236.4c-18.1-17.1-43.6-27.6-84.1-36.9l-42.8,58.6l6.6,1.5c32.9,7.2,44,14.7,56.5,23.9
			c9.7,7.1,16.8,17.6,16.8,34.4c0,20.8-4.6,33.1-19.9,44.1c-15.3,11-33,15.5-61.5,15.5c-48.6,0-97.6-21-118.8-73.1l-43.1,58.8
			c7,13.3,22.4,32.2,34.1,41.8c28.5,23.2,74.7,35.7,125.9,35.7c47.2,0,92.8-12,119.4-32.9c29.5-23.2,44.3-49.1,44.3-91.4
			C966,281.8,956.2,258.9,932.4,236.4z"/>
	</g>
</g>
</svg>
