<?xml version="1.0" encoding="utf-8"?>
<svg xmlns="http://www.w3.org/2000/svg" viewBox="0 0 30 30" width="480" height="480">
  <path d="M20.980469 1.9902344 A 1.0001 1.0001 0 0 0 20.292969 2.2929688L16.292969 6.2929688 A 1.0001 1.0001 0 0 0 16 7L16 9.3515625C14.59105 9.6510937 12.845892 10.154108 12 11L6 17C5.91 17.09 5.8204219 17.205359 5.7324219 17.318359L12.681641 24.267578C12.794641 24.179578 12.91 24.09 13 24L19 18C20.071107 16.928893 20.559966 15.29674 20.791016 14L23 14 A 1.0001 1.0001 0 0 0 23.707031 13.707031L27.707031 9.7070312 A 1.0001 1.0001 0 0 0 26.980469 7.9902344 A 1.0001 1.0001 0 0 0 26.292969 8.2929688L21.707031 3.7070312 A 1.0001 1.0001 0 0 0 20.980469 1.9902344 z M 18.414062 7L21 7C22.105 7 23 7.895 23 9L23 11.585938L22.585938 12L21 12L20.207031 11.207031L20.707031 10.707031C21.098031 10.317031 21.098031 9.6829687 20.707031 9.2929688C20.316031 8.9019687 19.682969 8.9019687 19.292969 9.2929688L18.792969 9.7929688L18 9L18 7.4140625L18.414062 7 z M 4.7304688 19.144531C4.2994687 20.216531 4 21.449 4 22.5C4 23.101107 4.166643 23.65814 4.4335938 24.152344L4.2929688 24.292969 A 1.0001 1.0001 0 1 0 5.7070312 25.707031L5.8476562 25.566406C6.3418603 25.833357 6.8988932 26 7.5 26C8.551 26 9.7834688 25.700531 10.855469 25.269531L4.7304688 19.144531 z" fill="#5B5B5B" />
</svg>