<?xml version="1.0" encoding="utf-8"?>
<svg xmlns="http://www.w3.org/2000/svg" viewBox="0 0 50 50" width="500" height="500">
  <path d="M41 4C40.14 4 39.329922 4.2802344 38.669922 4.7402344C39.609922 5.2902344 40.479531 5.9602344 41.269531 6.7402344C42.399531 7.8902344 43.310938 9.2092187 43.960938 10.699219C44.610938 9.9892188 45 9.05 45 8C45 5.79 43.21 4 41 4 z M 32.240234 5C29.360234 5 26.660859 6.1203906 24.630859 8.1503906L20.019531 12.75C19.249531 13.53 16.700469 14.759922 8.9804688 16.169922C8.0104687 16.349922 6.9909375 16.589375 6.2109375 17.359375C6.1809375 17.399375 6.1508594 17.430938 6.1308594 17.460938C6.0908594 17.490938 6.0590625 17.519063 6.0390625 17.539062L5.8007812 17.810547L5.7695312 17.929688C3.4695313 21.299688 6.4491406 28.210859 13.119141 34.880859C18.289141 40.040859 23.600781 43 27.300781 43C28.380781 43 29.320078 42.740703 30.080078 42.220703L30.240234 42.179688L30.449219 41.970703C30.479219 41.940703 30.509063 41.909141 30.539062 41.869141L30.640625 41.779297C31.410625 41.009297 31.650078 39.989766 31.830078 39.009766C33.240078 31.299766 34.47 28.750469 35.25 27.980469L39.849609 23.369141C41.879609 21.339141 43 18.639766 43 15.759766C43 14.319766 42.719453 12.930625 42.189453 11.640625C41.649453 10.360625 40.859609 9.1703906 39.849609 8.1503906C37.809609 6.1203906 35.110234 5 32.240234 5 z M 32 10C32.55 10 33 10.45 33 11C33 11.55 32.55 12 32 12C31.51 12 30.220937 12.169219 28.710938 13.699219L28.220703 14.210938C26.870703 15.580937 24.619688 17.870234 23.679688 18.740234C22.229688 20.060234 18.580938 20.980547 14.960938 21.810547L14.230469 21.970703C14.150469 21.990703 14.07 22 14 22C13.54 22 13.129297 21.690469 13.029297 21.230469C12.899297 20.690469 13.229531 20.149297 13.769531 20.029297L14.509766 19.859375C16.669766 19.359375 21.150312 18.339766 22.320312 17.259766C23.230313 16.429766 25.459062 14.160781 26.789062 12.800781L27.289062 12.300781C29.329062 10.220781 31.26 10 32 10 z M 13.220703 37.730469C12.460703 38.610469 12 39.75 12 41C12 43.76 14.24 46 17 46C18.87 46 20.499375 44.969219 21.359375 43.449219C18.769375 42.229219 15.990703 40.290469 13.220703 37.730469 z" fill="#5B5B5B" />
</svg>