<?xml version="1.0" encoding="utf-8"?>
<svg xmlns="http://www.w3.org/2000/svg" viewBox="0 0 48 48" width="240" height="240">
  <path fill="#fac8d5" d="M26,36h6v7c0,1.657-1.343,3-3,3h0c-1.657,0-3-1.343-3-3V36z" />
  <path fill="#fac8d5" d="M24.093,26.002l2.515-5.447l11.873,5.483c1.504,0.695,2.161,2.477,1.466,3.981v0 c-0.695,1.504-2.477,2.161-3.981,1.466L24.093,26.002z" />
  <path fill="#fac8d5" d="M24.224,26.002l-2.515-5.447L9.836,26.038c-1.504,0.695-2.161,2.477-1.466,3.981l0,0 c0.695,1.504,2.477,2.161,3.981,1.466L24.224,26.002z" />
  <path fill="#fac8d5" d="M17,37h6v6c0,1.657-1.343,3-3,3h0c-1.657,0-3-1.343-3-3V37z" />
  <polygon fill="#fa91ad" points="36,38 13,38 23,17 26,17" />
  <path fill="#f55376" d="M28.35,28.579c-0.855-0.783-2.226-0.77-3.064,0.028L25,28.88l-0.286-0.272 c-0.838-0.799-2.209-0.812-3.064-0.028c-0.855,0.783-0.868,2.065-0.031,2.864L25,34.667l3.381-3.224 C29.218,30.644,29.205,29.362,28.35,28.579z" />
  <polygon fill="#f55376" points="10,7.052 10,18.552 21.208,13.552 21.208,12.052" />
  <polygon fill="#f55376" points="38,7.027 38,18.577 26.604,13.555 26.604,12.049" />
  <circle cx="24.5" cy="13.5" r="9.5" fill="#fac8d5" />
  <path fill="#f55376" d="M24.496,4.003c-0.643-0.002-1.267,0.068-1.871,0.188c-0.003,0.085-0.014,0.169-0.014,0.255 c-0.013,5.239,4.224,9.496,9.463,9.509c0.655,0.002,1.294-0.063,1.912-0.188C34.128,8.489,29.894,4.016,24.496,4.003z" />
  <path fill="#f55376" d="M24.516,4.012c0.643,0,1.266,0.072,1.871,0.192C26.389,4.289,26.4,4.373,26.4,4.459 c0,5.239-4.247,9.486-9.486,9.486c-0.655,0-1.294-0.066-1.911-0.192C14.873,8.474,19.118,4.012,24.516,4.012z" />
</svg>