<?xml version="1.0" encoding="utf-8"?>
<svg xmlns="http://www.w3.org/2000/svg" viewBox="0 0 128 128" width="512" height="512">
  <path d="M63.5 1.5C56.6 1.5 51 7.1 51 14C51 15.7 52.3 17 54 17C55.7 17 57 15.7 57 14C57 10.4 59.9 7.5 63.5 7.5C67.1 7.5 70 10.4 70 14C70 15.7 71.3 17 73 17C74.7 17 76 15.7 76 14C76 7.1 70.4 1.5 63.5 1.5 z M 63.900391 19.900391C51.100391 19.900391 39.500391 27.900781 34.900391 39.800781L22.800781 71.900391C22.200781 73.400391 23 75.200781 24.5 75.800781C24.7 75.900781 24.999219 75.9 25.199219 76L85 76C86.7 76 88 77.3 88 79C88 80.7 86.7 82 85 82L23 82L19.5 82C12.3 82 6.5 87.8 6.5 95C6.5 102.2 12.3 108 19.5 108L109.5 108C116.7 108 122.5 102.2 122.5 95C122.5 87.8 116.79961 82 109.59961 82L109.09961 82L92.900391 39.800781C88.300391 27.900781 76.700391 19.900391 63.900391 19.900391 z M 64 25.800781C65.7 25.800781 67 27.100781 67 28.800781C67 30.500781 65.6 31.900391 64 31.900391C56.2 31.900391 49.000781 36.799609 46.300781 44.099609C45.800781 45.299609 44.7 46 43.5 46C43.1 46 42.800391 45.900781 42.400391 45.800781C40.900391 45.200781 40.099219 43.500391 40.699219 41.900391C44.399219 32.300391 53.8 25.800781 64 25.800781 z M 38 54C39.7 54 41 55.3 41 57C41 58.7 39.7 60 38 60C36.3 60 35 58.7 35 57C35 55.3 36.3 54 38 54 z M 17 89C18.7 89 20 90.3 20 92C20 93.7 18.7 95 17 95C15.3 95 14 93.7 14 92C14 90.3 15.3 89 17 89 z M 54 111.5C52.3 111.5 51 112.8 51 114.5C51 121.4 56.6 127 63.5 127C70.4 127 76 121.4 76 114.5C76 112.8 74.7 111.5 73 111.5C71.3 111.5 70 112.8 70 114.5C70 118.1 67.1 121 63.5 121C59.9 121 57 118.1 57 114.5C57 112.8 55.7 111.5 54 111.5 z" fill="#5B5B5B" />
</svg>